<?xml version="1.0" standalone="no"?>
<svg xmlns:xlink="http://www.w3.org/1999/xlink" id="wave" style="transform:rotate(0deg); transition: 0.3s" viewBox="0 0 1440 490" version="1.1" xmlns="http://www.w3.org/2000/svg"><defs><linearGradient id="sw-gradient-0" x1="0" x2="0" y1="1" y2="0"><stop stop-color="rgba(0.417, 0.417, 0.417, 1)" offset="0%"/><stop stop-color="rgba(0, 0, 0, 1)" offset="100%"/></linearGradient></defs><path style="transform:translate(0, 0px); opacity:1" fill="url(#sw-gradient-0)" d="M0,343L120,302.2C240,261,480,180,720,155.2C960,131,1200,163,1440,187.8C1680,212,1920,229,2160,253.2C2400,278,2640,310,2880,334.8C3120,359,3360,376,3600,334.8C3840,294,4080,196,4320,130.7C4560,65,4800,33,5040,81.7C5280,131,5520,261,5760,318.5C6000,376,6240,359,6480,318.5C6720,278,6960,212,7200,179.7C7440,147,7680,147,7920,155.2C8160,163,8400,180,8640,228.7C8880,278,9120,359,9360,351.2C9600,343,9840,245,10080,220.5C10320,196,10560,245,10800,220.5C11040,196,11280,98,11520,65.3C11760,33,12000,65,12240,98C12480,131,12720,163,12960,147C13200,131,13440,65,13680,40.8C13920,16,14160,33,14400,65.3C14640,98,14880,147,15120,187.8C15360,229,15600,261,15840,236.8C16080,212,16320,131,16560,130.7C16800,131,17040,212,17160,253.2L17280,294L17280,490L17160,490C17040,490,16800,490,16560,490C16320,490,16080,490,15840,490C15600,490,15360,490,15120,490C14880,490,14640,490,14400,490C14160,490,13920,490,13680,490C13440,490,13200,490,12960,490C12720,490,12480,490,12240,490C12000,490,11760,490,11520,490C11280,490,11040,490,10800,490C10560,490,10320,490,10080,490C9840,490,9600,490,9360,490C9120,490,8880,490,8640,490C8400,490,8160,490,7920,490C7680,490,7440,490,7200,490C6960,490,6720,490,6480,490C6240,490,6000,490,5760,490C5520,490,5280,490,5040,490C4800,490,4560,490,4320,490C4080,490,3840,490,3600,490C3360,490,3120,490,2880,490C2640,490,2400,490,2160,490C1920,490,1680,490,1440,490C1200,490,960,490,720,490C480,490,240,490,120,490L0,490Z"/></svg>